<svg xmlns="http://www.w3.org/2000/svg" viewBox="0 0 400 300" role="img" aria-label="Oat energy bar">
<defs><pattern id="g" width="20" height="20" patternUnits="userSpaceOnUse"><path d="M20 0H0V20" fill="none" stroke="#000" stroke-opacity=".07" stroke-width="1"/></pattern></defs>
<rect width="400" height="300" fill="#F7D774"/><rect width="400" height="300" fill="url(#g)"/>
<ellipse cx="200" cy="258" rx="128" ry="13" fill="#000" opacity=".17"/>

<g transform="rotate(-6 200 156)">
<rect x="246" y="124" width="92" height="62" rx="6" fill="#D9A441" stroke="#141412" stroke-width="6" stroke-linejoin="round" stroke-linecap="round"/>
<g fill="#F3D78F"><ellipse cx="266" cy="140" rx="6" ry="4"/><ellipse cx="292" cy="150" rx="7" ry="4"/><ellipse cx="318" cy="138" rx="6" ry="4"/><ellipse cx="276" cy="168" rx="7" ry="4"/><ellipse cx="306" cy="172" rx="6" ry="4"/><ellipse cx="324" cy="160" rx="5" ry="3"/></g>
<g fill="#A86B1E"><circle cx="282" cy="132" r="3"/><circle cx="312" cy="154" r="3"/><circle cx="262" cy="158" r="3"/><circle cx="296" cy="178" r="2.5"/></g>
<path d="M300 186 C300 196 306 200 306 208 C306 214 296 214 296 208 C296 200 300 196 300 186 Z" fill="#E8A317" stroke="#141412" stroke-width="4" stroke-linejoin="round" stroke-linecap="round"/>
<path d="M70 118 H252 L244 128 L256 138 L244 148 L256 158 L244 168 L256 178 L246 192 H70 Z" fill="#C9A46B" stroke="#141412" stroke-width="6" stroke-linejoin="round" stroke-linecap="round"/>
<path d="M70 132 H240" stroke="#A9834C" stroke-width="3"/>
<circle cx="140" cy="155" r="25" fill="#FF2D00" stroke="#141412" stroke-width="5" stroke-linejoin="round" stroke-linecap="round"/>
<text x="140" y="162" font-family="Arial Black, Arial, Helvetica, sans-serif" font-weight="900" font-size="17" letter-spacing="1" text-anchor="middle" fill="#141412">OAT</text>
<text x="205" y="162" font-family="Arial Black, Arial, Helvetica, sans-serif" font-weight="900" font-size="13" letter-spacing="2" text-anchor="middle" fill="#141412">HONEY</text>
</g>
</svg>
